<mxfile host="app.diagrams.net" modified="2023-04-19T22:14:55.406Z" agent="Mozilla/5.0 (Windows NT 10.0; Win64; x64) AppleWebKit/537.36 (KHTML, like Gecko) Chrome/112.0.0.0 Safari/537.36" etag="tTUob9Zp5S-97a4Da2Kp" version="21.1.8" type="github">
  <diagram id="ANK8yeU2HxZxUtk9vQTT" name="Page-1">
    <mxGraphModel dx="2796" dy="2068" grid="1" gridSize="10" guides="1" tooltips="1" connect="1" arrows="1" fold="1" page="1" pageScale="1" pageWidth="827" pageHeight="1169" math="0" shadow="0">
      <root>
        <mxCell id="0" />
        <mxCell id="1" parent="0" />
        <mxCell id="OGihFUOiRt5ncDhIjMLe-1" value="" style="shape=process;whiteSpace=wrap;html=1;backgroundOutline=1;" parent="1" vertex="1">
          <mxGeometry x="-500" y="170" width="1040" height="830" as="geometry" />
        </mxCell>
        <mxCell id="OGihFUOiRt5ncDhIjMLe-3" value="" style="whiteSpace=wrap;html=1;aspect=fixed;" parent="1" vertex="1">
          <mxGeometry x="-396" y="170" width="65" height="65" as="geometry" />
        </mxCell>
        <mxCell id="OGihFUOiRt5ncDhIjMLe-9" value="" style="whiteSpace=wrap;html=1;aspect=fixed;" parent="1" vertex="1">
          <mxGeometry x="-330.5" y="234.5" width="701" height="701" as="geometry" />
        </mxCell>
        <mxCell id="OGihFUOiRt5ncDhIjMLe-2" value="" style="whiteSpace=wrap;html=1;aspect=fixed;" parent="1" vertex="1">
          <mxGeometry x="-305" y="260" width="650" height="650" as="geometry" />
        </mxCell>
        <mxCell id="OGihFUOiRt5ncDhIjMLe-10" value="" style="whiteSpace=wrap;html=1;aspect=fixed;" parent="1" vertex="1">
          <mxGeometry x="370.5" y="170.5" width="65" height="65" as="geometry" />
        </mxCell>
        <mxCell id="OGihFUOiRt5ncDhIjMLe-12" value="" style="whiteSpace=wrap;html=1;aspect=fixed;" parent="1" vertex="1">
          <mxGeometry x="370.5" y="935.5" width="65" height="65" as="geometry" />
        </mxCell>
        <mxCell id="OGihFUOiRt5ncDhIjMLe-13" value="" style="whiteSpace=wrap;html=1;aspect=fixed;" parent="1" vertex="1">
          <mxGeometry x="-396" y="935" width="65" height="65" as="geometry" />
        </mxCell>
        <mxCell id="OGihFUOiRt5ncDhIjMLe-14" value="" style="rounded=0;whiteSpace=wrap;html=1;" parent="1" vertex="1">
          <mxGeometry x="-395" y="555" width="90" height="60" as="geometry" />
        </mxCell>
        <mxCell id="OGihFUOiRt5ncDhIjMLe-19" value="" style="rounded=0;whiteSpace=wrap;html=1;rotation=-90;" parent="1" vertex="1">
          <mxGeometry x="-48.75" y="316.75" width="137.5" height="25" as="geometry" />
        </mxCell>
        <mxCell id="JRItzg8ENbcsubA8IzQK-1" value="" style="rounded=0;whiteSpace=wrap;html=1;rotation=-90;" parent="1" vertex="1">
          <mxGeometry x="-48.75" y="828" width="137.5" height="25" as="geometry" />
        </mxCell>
        <mxCell id="JRItzg8ENbcsubA8IzQK-2" value="" style="rounded=0;whiteSpace=wrap;html=1;" parent="1" vertex="1">
          <mxGeometry x="376" y="248.75" width="59.5" height="134.5" as="geometry" />
        </mxCell>
        <mxCell id="JRItzg8ENbcsubA8IzQK-3" value="" style="rounded=0;whiteSpace=wrap;html=1;" parent="1" vertex="1">
          <mxGeometry x="376" y="383.25" width="59.5" height="134.5" as="geometry" />
        </mxCell>
        <mxCell id="JRItzg8ENbcsubA8IzQK-4" value="" style="rounded=0;whiteSpace=wrap;html=1;" parent="1" vertex="1">
          <mxGeometry x="376" y="517.75" width="59.5" height="134.5" as="geometry" />
        </mxCell>
        <mxCell id="JRItzg8ENbcsubA8IzQK-5" value="" style="rounded=0;whiteSpace=wrap;html=1;" parent="1" vertex="1">
          <mxGeometry x="376" y="652.25" width="59.5" height="134.5" as="geometry" />
        </mxCell>
        <mxCell id="JRItzg8ENbcsubA8IzQK-6" value="" style="rounded=0;whiteSpace=wrap;html=1;" parent="1" vertex="1">
          <mxGeometry x="376" y="786.75" width="59.5" height="134.5" as="geometry" />
        </mxCell>
        <mxCell id="JRItzg8ENbcsubA8IzQK-7" value="&lt;font style=&quot;font-size: 24px&quot;&gt;Basket Ball&lt;/font&gt;" style="text;html=1;resizable=0;autosize=1;align=center;verticalAlign=middle;points=[];fillColor=none;strokeColor=none;rounded=0;rotation=-90;" parent="1" vertex="1">
          <mxGeometry x="336" y="709.5" width="140" height="20" as="geometry" />
        </mxCell>
        <mxCell id="JRItzg8ENbcsubA8IzQK-8" value="&lt;font style=&quot;font-size: 18px&quot;&gt;Outdoor Tennis&lt;/font&gt;" style="text;html=1;resizable=0;autosize=1;align=center;verticalAlign=middle;points=[];fillColor=none;strokeColor=none;rounded=0;rotation=-90;" parent="1" vertex="1">
          <mxGeometry x="335.75" y="575" width="140" height="20" as="geometry" />
        </mxCell>
        <mxCell id="JRItzg8ENbcsubA8IzQK-10" value="&lt;font style=&quot;font-size: 18px&quot;&gt;Archery Range&lt;/font&gt;" style="text;html=1;resizable=0;autosize=1;align=center;verticalAlign=middle;points=[];fillColor=none;strokeColor=none;rounded=0;rotation=-90;" parent="1" vertex="1">
          <mxGeometry x="336" y="306" width="140" height="20" as="geometry" />
        </mxCell>
        <mxCell id="JRItzg8ENbcsubA8IzQK-11" value="&lt;font style=&quot;font-size: 20px&quot;&gt;Kalari Range&lt;/font&gt;" style="text;html=1;resizable=0;autosize=1;align=center;verticalAlign=middle;points=[];fillColor=none;strokeColor=none;rounded=0;rotation=-90;" parent="1" vertex="1">
          <mxGeometry x="341" y="844" width="130" height="20" as="geometry" />
        </mxCell>
        <mxCell id="JRItzg8ENbcsubA8IzQK-12" value="&lt;font style=&quot;font-size: 18px&quot;&gt;Shooting Range&lt;/font&gt;" style="text;html=1;resizable=0;autosize=1;align=center;verticalAlign=middle;points=[];fillColor=none;strokeColor=none;rounded=0;rotation=-90;" parent="1" vertex="1">
          <mxGeometry x="336" y="440" width="140" height="20" as="geometry" />
        </mxCell>
        <mxCell id="JRItzg8ENbcsubA8IzQK-13" value="" style="rounded=0;whiteSpace=wrap;html=1;fontSize=20;" parent="1" vertex="1">
          <mxGeometry x="-80" y="170" width="200" height="60" as="geometry" />
        </mxCell>
        <mxCell id="JRItzg8ENbcsubA8IzQK-14" value="" style="rounded=0;whiteSpace=wrap;html=1;fontSize=20;" parent="1" vertex="1">
          <mxGeometry x="240" y="170" width="120" height="60" as="geometry" />
        </mxCell>
        <mxCell id="JRItzg8ENbcsubA8IzQK-15" value="" style="rounded=0;whiteSpace=wrap;html=1;fontSize=20;" parent="1" vertex="1">
          <mxGeometry x="120" y="170" width="120" height="60" as="geometry" />
        </mxCell>
        <mxCell id="JRItzg8ENbcsubA8IzQK-16" value="" style="rounded=0;whiteSpace=wrap;html=1;fontSize=20;" parent="1" vertex="1">
          <mxGeometry x="-200" y="170" width="120" height="60" as="geometry" />
        </mxCell>
        <mxCell id="JRItzg8ENbcsubA8IzQK-17" value="" style="rounded=0;whiteSpace=wrap;html=1;fontSize=20;" parent="1" vertex="1">
          <mxGeometry x="-320" y="170" width="120" height="60" as="geometry" />
        </mxCell>
        <mxCell id="JRItzg8ENbcsubA8IzQK-18" value="" style="rounded=0;whiteSpace=wrap;html=1;fontSize=20;rotation=-90;" parent="1" vertex="1">
          <mxGeometry x="-465.5" y="425.5" width="200" height="60" as="geometry" />
        </mxCell>
        <mxCell id="JRItzg8ENbcsubA8IzQK-19" value="" style="rounded=0;whiteSpace=wrap;html=1;fontSize=20;" parent="1" vertex="1">
          <mxGeometry x="-80" y="940.5" width="200" height="60" as="geometry" />
        </mxCell>
        <mxCell id="JRItzg8ENbcsubA8IzQK-20" value="" style="rounded=0;whiteSpace=wrap;html=1;fontSize=20;" parent="1" vertex="1">
          <mxGeometry x="240" y="940.5" width="120" height="60" as="geometry" />
        </mxCell>
        <mxCell id="JRItzg8ENbcsubA8IzQK-21" value="" style="rounded=0;whiteSpace=wrap;html=1;fontSize=20;" parent="1" vertex="1">
          <mxGeometry x="120" y="940.5" width="120" height="60" as="geometry" />
        </mxCell>
        <mxCell id="JRItzg8ENbcsubA8IzQK-22" value="" style="rounded=0;whiteSpace=wrap;html=1;fontSize=20;" parent="1" vertex="1">
          <mxGeometry x="-200" y="940.5" width="120" height="60" as="geometry" />
        </mxCell>
        <mxCell id="JRItzg8ENbcsubA8IzQK-23" value="" style="rounded=0;whiteSpace=wrap;html=1;fontSize=20;" parent="1" vertex="1">
          <mxGeometry x="-320" y="940.5" width="120" height="60" as="geometry" />
        </mxCell>
        <mxCell id="JRItzg8ENbcsubA8IzQK-24" value="" style="rounded=0;whiteSpace=wrap;html=1;fontSize=20;rotation=-90;" parent="1" vertex="1">
          <mxGeometry x="-425.5" y="833" width="120" height="60" as="geometry" />
        </mxCell>
        <mxCell id="JRItzg8ENbcsubA8IzQK-26" value="" style="rounded=0;whiteSpace=wrap;html=1;fontSize=20;rotation=-90;" parent="1" vertex="1">
          <mxGeometry x="-426" y="712.5" width="120" height="60" as="geometry" />
        </mxCell>
        <mxCell id="JRItzg8ENbcsubA8IzQK-27" value="" style="rounded=0;whiteSpace=wrap;html=1;fontSize=20;rotation=-90;" parent="1" vertex="1">
          <mxGeometry x="-398.37" y="618.88" width="65.75" height="60" as="geometry" />
        </mxCell>
        <mxCell id="JRItzg8ENbcsubA8IzQK-28" value="" style="rounded=0;whiteSpace=wrap;html=1;fontSize=20;rotation=-90;" parent="1" vertex="1">
          <mxGeometry x="-412" y="266" width="94" height="60" as="geometry" />
        </mxCell>
        <mxCell id="JRItzg8ENbcsubA8IzQK-29" value="&lt;font style=&quot;font-size: 18px&quot;&gt;Extra Parking&lt;/font&gt;" style="text;html=1;resizable=0;autosize=1;align=center;verticalAlign=middle;points=[];fillColor=none;strokeColor=none;rounded=0;rotation=-90;" parent="1" vertex="1">
          <mxGeometry x="-426.5" y="446.5" width="120" height="20" as="geometry" />
        </mxCell>
        <mxCell id="JRItzg8ENbcsubA8IzQK-30" value="&lt;span style=&quot;font-size: 18px&quot;&gt;Security&lt;/span&gt;" style="text;html=1;resizable=0;autosize=1;align=center;verticalAlign=middle;points=[];fillColor=none;strokeColor=none;rounded=0;rotation=-45;" parent="1" vertex="1">
          <mxGeometry x="-406.5" y="638.88" width="80" height="20" as="geometry" />
        </mxCell>
        <mxCell id="JRItzg8ENbcsubA8IzQK-32" value="&lt;font style=&quot;font-size: 12px&quot;&gt;Generator/Bio-Gas&lt;/font&gt;" style="text;html=1;resizable=0;autosize=1;align=center;verticalAlign=middle;points=[];fillColor=none;strokeColor=none;rounded=0;rotation=-60;" parent="1" vertex="1">
          <mxGeometry x="-425.5" y="287" width="120" height="20" as="geometry" />
        </mxCell>
        <mxCell id="JRItzg8ENbcsubA8IzQK-33" value="&lt;font style=&quot;font-size: 18px&quot;&gt;Kitchen&lt;/font&gt;" style="text;html=1;resizable=0;autosize=1;align=center;verticalAlign=middle;points=[];fillColor=none;strokeColor=none;rounded=0;rotation=-60;" parent="1" vertex="1">
          <mxGeometry x="-405" y="193" width="80" height="20" as="geometry" />
        </mxCell>
        <mxCell id="JRItzg8ENbcsubA8IzQK-34" value="&lt;font style=&quot;font-size: 18px&quot;&gt;Entrance &amp;gt;&lt;/font&gt;" style="text;html=1;resizable=0;autosize=1;align=center;verticalAlign=middle;points=[];fillColor=none;strokeColor=none;rounded=0;rotation=0;" parent="1" vertex="1">
          <mxGeometry x="-400" y="575" width="100" height="20" as="geometry" />
        </mxCell>
        <mxCell id="JRItzg8ENbcsubA8IzQK-35" value="&lt;font style=&quot;font-size: 18px&quot;&gt;Parking&lt;/font&gt;" style="text;html=1;resizable=0;autosize=1;align=center;verticalAlign=middle;points=[];fillColor=none;strokeColor=none;rounded=0;rotation=0;" parent="1" vertex="1">
          <mxGeometry x="-180" y="190" width="80" height="20" as="geometry" />
        </mxCell>
        <mxCell id="JRItzg8ENbcsubA8IzQK-36" value="&lt;font style=&quot;font-size: 18px&quot;&gt;Parking&lt;/font&gt;" style="text;html=1;resizable=0;autosize=1;align=center;verticalAlign=middle;points=[];fillColor=none;strokeColor=none;rounded=0;rotation=0;" parent="1" vertex="1">
          <mxGeometry x="140" y="193" width="80" height="20" as="geometry" />
        </mxCell>
        <mxCell id="JRItzg8ENbcsubA8IzQK-37" value="&lt;font style=&quot;font-size: 18px&quot;&gt;Parking&lt;/font&gt;" style="text;html=1;resizable=0;autosize=1;align=center;verticalAlign=middle;points=[];fillColor=none;strokeColor=none;rounded=0;rotation=0;" parent="1" vertex="1">
          <mxGeometry x="-180" y="960.5" width="80" height="20" as="geometry" />
        </mxCell>
        <mxCell id="JRItzg8ENbcsubA8IzQK-40" value="" style="ellipse;whiteSpace=wrap;html=1;aspect=fixed;" parent="1" vertex="1">
          <mxGeometry x="-192.75" y="372.25" width="425.5" height="425.5" as="geometry" />
        </mxCell>
        <mxCell id="JRItzg8ENbcsubA8IzQK-39" value="&lt;font style=&quot;font-size: 18px&quot;&gt;Parking&lt;/font&gt;" style="text;html=1;resizable=0;autosize=1;align=center;verticalAlign=middle;points=[];fillColor=none;strokeColor=none;rounded=0;rotation=0;" parent="1" vertex="1">
          <mxGeometry x="140" y="960.5" width="80" height="20" as="geometry" />
        </mxCell>
        <mxCell id="OGihFUOiRt5ncDhIjMLe-15" value="" style="ellipse;whiteSpace=wrap;html=1;aspect=fixed;" parent="1" vertex="1">
          <mxGeometry x="-167.5" y="397.5" width="375" height="375" as="geometry" />
        </mxCell>
        <mxCell id="OGihFUOiRt5ncDhIjMLe-17" value="" style="endArrow=none;dashed=1;html=1;dashPattern=1 3;strokeWidth=2;rounded=0;entryX=0.5;entryY=0;entryDx=0;entryDy=0;exitX=0.5;exitY=1;exitDx=0;exitDy=0;startArrow=none;" parent="1" source="JRItzg8ENbcsubA8IzQK-43" edge="1">
          <mxGeometry width="50" height="50" relative="1" as="geometry">
            <mxPoint x="19.5" y="772.5" as="sourcePoint" />
            <mxPoint x="19.5" y="397.5" as="targetPoint" />
          </mxGeometry>
        </mxCell>
        <mxCell id="JRItzg8ENbcsubA8IzQK-41" value="" style="endArrow=none;dashed=1;html=1;rounded=0;fontSize=18;entryX=0;entryY=0.5;entryDx=0;entryDy=0;" parent="1" target="JRItzg8ENbcsubA8IzQK-40" edge="1">
          <mxGeometry width="50" height="50" relative="1" as="geometry">
            <mxPoint x="-306" y="585" as="sourcePoint" />
            <mxPoint x="-256" y="535" as="targetPoint" />
          </mxGeometry>
        </mxCell>
        <mxCell id="JRItzg8ENbcsubA8IzQK-42" value="" style="endArrow=none;dashed=1;html=1;rounded=0;fontSize=18;entryX=0;entryY=0.5;entryDx=0;entryDy=0;" parent="1" edge="1">
          <mxGeometry width="50" height="50" relative="1" as="geometry">
            <mxPoint x="232.75" y="584" as="sourcePoint" />
            <mxPoint x="345.9999999999982" y="584" as="targetPoint" />
          </mxGeometry>
        </mxCell>
        <mxCell id="JRItzg8ENbcsubA8IzQK-44" value="" style="endArrow=none;dashed=1;html=1;dashPattern=1 3;strokeWidth=2;rounded=0;entryX=0.5;entryY=0;entryDx=0;entryDy=0;exitX=0.5;exitY=1;exitDx=0;exitDy=0;" parent="1" target="JRItzg8ENbcsubA8IzQK-43" edge="1">
          <mxGeometry width="50" height="50" relative="1" as="geometry">
            <mxPoint x="19.5" y="772.5" as="sourcePoint" />
            <mxPoint x="19.5" y="397.5" as="targetPoint" />
          </mxGeometry>
        </mxCell>
        <mxCell id="OGihFUOiRt5ncDhIjMLe-18" value="" style="endArrow=none;dashed=1;html=1;dashPattern=1 3;strokeWidth=2;rounded=0;entryX=1;entryY=0.5;entryDx=0;entryDy=0;exitX=0;exitY=0.5;exitDx=0;exitDy=0;startArrow=none;" parent="1" source="JRItzg8ENbcsubA8IzQK-66" edge="1">
          <mxGeometry width="50" height="50" relative="1" as="geometry">
            <mxPoint x="-167.50000000000136" y="584.5" as="sourcePoint" />
            <mxPoint x="207.50000000000182" y="584.5" as="targetPoint" />
          </mxGeometry>
        </mxCell>
        <mxCell id="JRItzg8ENbcsubA8IzQK-43" value="" style="ellipse;whiteSpace=wrap;html=1;aspect=fixed;fontSize=18;" parent="1" vertex="1">
          <mxGeometry x="-10" y="555" width="60" height="60" as="geometry" />
        </mxCell>
        <mxCell id="JRItzg8ENbcsubA8IzQK-45" value="&lt;font style=&quot;font-size: 14px&quot;&gt;Occasional Celebration Area&lt;/font&gt;" style="text;html=1;resizable=0;autosize=1;align=center;verticalAlign=middle;points=[];fillColor=none;strokeColor=none;rounded=0;rotation=0;" parent="1" vertex="1">
          <mxGeometry x="-75" y="190" width="190" height="20" as="geometry" />
        </mxCell>
        <mxCell id="JRItzg8ENbcsubA8IzQK-46" value="&lt;font style=&quot;font-size: 14px&quot;&gt;Monthly Celebration Area&lt;/font&gt;" style="text;html=1;resizable=0;autosize=1;align=center;verticalAlign=middle;points=[];fillColor=none;strokeColor=none;rounded=0;rotation=0;" parent="1" vertex="1">
          <mxGeometry x="-60" y="960.5" width="170" height="20" as="geometry" />
        </mxCell>
        <mxCell id="JRItzg8ENbcsubA8IzQK-47" value="&lt;font style=&quot;font-size: 18px&quot;&gt;Male Gym&lt;/font&gt;" style="text;html=1;resizable=0;autosize=1;align=center;verticalAlign=middle;points=[];fillColor=none;strokeColor=none;rounded=0;rotation=0;" parent="1" vertex="1">
          <mxGeometry x="251" y="193" width="100" height="20" as="geometry" />
        </mxCell>
        <mxCell id="JRItzg8ENbcsubA8IzQK-48" value="&lt;font style=&quot;font-size: 18px&quot;&gt;Female Gym&lt;/font&gt;" style="text;html=1;resizable=0;autosize=1;align=center;verticalAlign=middle;points=[];fillColor=none;strokeColor=none;rounded=0;rotation=0;" parent="1" vertex="1">
          <mxGeometry x="240" y="960.5" width="120" height="20" as="geometry" />
        </mxCell>
        <mxCell id="JRItzg8ENbcsubA8IzQK-49" value="&lt;font style=&quot;font-size: 18px&quot;&gt;Meeting Room&lt;/font&gt;" style="text;html=1;resizable=0;autosize=1;align=center;verticalAlign=middle;points=[];fillColor=none;strokeColor=none;rounded=0;rotation=0;" parent="1" vertex="1">
          <mxGeometry x="-325" y="960.5" width="130" height="20" as="geometry" />
        </mxCell>
        <mxCell id="JRItzg8ENbcsubA8IzQK-50" value="&lt;font style=&quot;font-size: 12px&quot;&gt;Food/Retail Storage&lt;/font&gt;" style="text;html=1;resizable=0;autosize=1;align=center;verticalAlign=middle;points=[];fillColor=none;strokeColor=none;rounded=0;rotation=0;" parent="1" vertex="1">
          <mxGeometry x="-320" y="192.5" width="120" height="20" as="geometry" />
        </mxCell>
        <mxCell id="JRItzg8ENbcsubA8IzQK-51" value="&lt;font style=&quot;font-size: 14px&quot;&gt;Puja Area&lt;/font&gt;" style="text;html=1;resizable=0;autosize=1;align=center;verticalAlign=middle;points=[];fillColor=none;strokeColor=none;rounded=0;rotation=-45;" parent="1" vertex="1">
          <mxGeometry x="363" y="957.5" width="80" height="20" as="geometry" />
        </mxCell>
        <mxCell id="JRItzg8ENbcsubA8IzQK-52" value="&lt;font style=&quot;font-size: 12px&quot;&gt;Planning Area&lt;/font&gt;" style="text;html=1;resizable=0;autosize=1;align=center;verticalAlign=middle;points=[];fillColor=none;strokeColor=none;rounded=0;rotation=-45;" parent="1" vertex="1">
          <mxGeometry x="357" y="193" width="90" height="20" as="geometry" />
        </mxCell>
        <mxCell id="JRItzg8ENbcsubA8IzQK-53" value="&lt;font style=&quot;font-size: 14px&quot;&gt;Women Beauty&lt;/font&gt;" style="text;html=1;resizable=0;autosize=1;align=center;verticalAlign=middle;points=[];fillColor=none;strokeColor=none;rounded=0;rotation=-90;" parent="1" vertex="1">
          <mxGeometry x="-421.5" y="853" width="110" height="20" as="geometry" />
        </mxCell>
        <mxCell id="JRItzg8ENbcsubA8IzQK-54" value="&lt;font style=&quot;font-size: 12px&quot;&gt;Eye/Dental&lt;br&gt;Maintenance&lt;br&gt;&lt;/font&gt;" style="text;html=1;resizable=0;autosize=1;align=center;verticalAlign=middle;points=[];fillColor=none;strokeColor=none;rounded=0;rotation=-45;" parent="1" vertex="1">
          <mxGeometry x="-406" y="951.5" width="80" height="30" as="geometry" />
        </mxCell>
        <mxCell id="JRItzg8ENbcsubA8IzQK-55" value="&lt;font style=&quot;font-size: 14px&quot;&gt;Men Appearance&lt;/font&gt;" style="text;html=1;resizable=0;autosize=1;align=center;verticalAlign=middle;points=[];fillColor=none;strokeColor=none;rounded=0;rotation=-90;" parent="1" vertex="1">
          <mxGeometry x="-425" y="732.5" width="120" height="20" as="geometry" />
        </mxCell>
        <mxCell id="JRItzg8ENbcsubA8IzQK-56" value="&lt;font style=&quot;font-size: 18px&quot;&gt;Education&lt;/font&gt;" style="text;html=1;resizable=0;autosize=1;align=center;verticalAlign=middle;points=[];fillColor=none;strokeColor=none;rounded=0;rotation=0;" parent="1" vertex="1">
          <mxGeometry x="-110" y="497.75" width="100" height="20" as="geometry" />
        </mxCell>
        <mxCell id="JRItzg8ENbcsubA8IzQK-57" value="&lt;font style=&quot;font-size: 18px&quot;&gt;Tradition&lt;/font&gt;" style="text;html=1;resizable=0;autosize=1;align=center;verticalAlign=middle;points=[];fillColor=none;strokeColor=none;rounded=0;rotation=0;" parent="1" vertex="1">
          <mxGeometry x="-100" y="658.88" width="80" height="20" as="geometry" />
        </mxCell>
        <mxCell id="JRItzg8ENbcsubA8IzQK-58" value="&lt;font style=&quot;font-size: 18px&quot;&gt;Food&lt;/font&gt;" style="text;html=1;resizable=0;autosize=1;align=center;verticalAlign=middle;points=[];fillColor=none;strokeColor=none;rounded=0;rotation=0;" parent="1" vertex="1">
          <mxGeometry x="80" y="497.75" width="60" height="20" as="geometry" />
        </mxCell>
        <mxCell id="JRItzg8ENbcsubA8IzQK-60" value="&lt;font style=&quot;font-size: 18px&quot;&gt;Recreation&lt;/font&gt;" style="text;html=1;resizable=0;autosize=1;align=center;verticalAlign=middle;points=[];fillColor=none;strokeColor=none;rounded=0;rotation=0;" parent="1" vertex="1">
          <mxGeometry x="50" y="658.88" width="100" height="20" as="geometry" />
        </mxCell>
        <mxCell id="JRItzg8ENbcsubA8IzQK-61" value="&lt;font style=&quot;font-size: 36px&quot;&gt;Housing Area&lt;/font&gt;" style="text;html=1;resizable=0;autosize=1;align=center;verticalAlign=middle;points=[];fillColor=none;strokeColor=none;rounded=0;rotation=-45;" parent="1" vertex="1">
          <mxGeometry x="-305" y="367.5" width="230" height="30" as="geometry" />
        </mxCell>
        <mxCell id="JRItzg8ENbcsubA8IzQK-62" value="&lt;font style=&quot;font-size: 36px&quot;&gt;Housing Area&lt;/font&gt;" style="text;html=1;resizable=0;autosize=1;align=center;verticalAlign=middle;points=[];fillColor=none;strokeColor=none;rounded=0;rotation=-45;" parent="1" vertex="1">
          <mxGeometry x="106" y="756.75" width="230" height="30" as="geometry" />
        </mxCell>
        <mxCell id="JRItzg8ENbcsubA8IzQK-63" value="&lt;font style=&quot;font-size: 36px&quot;&gt;Housing Area&lt;/font&gt;" style="text;html=1;resizable=0;autosize=1;align=center;verticalAlign=middle;points=[];fillColor=none;strokeColor=none;rounded=0;rotation=45;" parent="1" vertex="1">
          <mxGeometry x="105.75" y="383.25" width="230" height="30" as="geometry" />
        </mxCell>
        <mxCell id="JRItzg8ENbcsubA8IzQK-64" value="&lt;font style=&quot;font-size: 36px&quot;&gt;Housing Area&lt;/font&gt;" style="text;html=1;resizable=0;autosize=1;align=center;verticalAlign=middle;points=[];fillColor=none;strokeColor=none;rounded=0;rotation=45;" parent="1" vertex="1">
          <mxGeometry x="-300" y="767.75" width="230" height="30" as="geometry" />
        </mxCell>
        <mxCell id="JRItzg8ENbcsubA8IzQK-66" value="" style="shape=image;html=1;verticalAlign=top;verticalLabelPosition=bottom;labelBackgroundColor=#ffffff;imageAspect=0;aspect=fixed;image=https://cdn4.iconfinder.com/data/icons/free-color-christmas-icons/24/Christmas_Tree-128.png;fontSize=36;" parent="1" vertex="1">
          <mxGeometry x="-4" y="561" width="48" height="48" as="geometry" />
        </mxCell>
        <mxCell id="JRItzg8ENbcsubA8IzQK-67" value="" style="endArrow=none;dashed=1;html=1;dashPattern=1 3;strokeWidth=2;rounded=0;entryX=1;entryY=0.5;entryDx=0;entryDy=0;exitX=0;exitY=0.5;exitDx=0;exitDy=0;" parent="1" target="JRItzg8ENbcsubA8IzQK-66" edge="1">
          <mxGeometry width="50" height="50" relative="1" as="geometry">
            <mxPoint x="-167.50000000000136" y="584.5" as="sourcePoint" />
            <mxPoint x="207.50000000000182" y="584.5" as="targetPoint" />
          </mxGeometry>
        </mxCell>
        <mxCell id="JRItzg8ENbcsubA8IzQK-65" value="&lt;font style=&quot;font-size: 24px&quot; color=&quot;#0000cc&quot;&gt;&lt;b&gt;Tree&lt;/b&gt;&lt;/font&gt;" style="text;html=1;resizable=0;autosize=1;align=center;verticalAlign=middle;points=[];fillColor=none;strokeColor=none;rounded=0;rotation=0;" parent="1" vertex="1">
          <mxGeometry x="-10" y="575" width="60" height="20" as="geometry" />
        </mxCell>
        <mxCell id="I3QkiguX6uBvckIXAO9h-1" value="" style="shape=process;whiteSpace=wrap;html=1;backgroundOutline=1;" vertex="1" parent="1">
          <mxGeometry x="-500" y="-832" width="1040" height="830" as="geometry" />
        </mxCell>
        <mxCell id="I3QkiguX6uBvckIXAO9h-2" value="" style="whiteSpace=wrap;html=1;aspect=fixed;" vertex="1" parent="1">
          <mxGeometry x="-396" y="-832" width="65" height="65" as="geometry" />
        </mxCell>
        <mxCell id="I3QkiguX6uBvckIXAO9h-3" value="" style="whiteSpace=wrap;html=1;aspect=fixed;" vertex="1" parent="1">
          <mxGeometry x="-330.5" y="-767.5" width="701" height="701" as="geometry" />
        </mxCell>
        <mxCell id="I3QkiguX6uBvckIXAO9h-4" value="" style="whiteSpace=wrap;html=1;aspect=fixed;" vertex="1" parent="1">
          <mxGeometry x="-305" y="-742" width="650" height="650" as="geometry" />
        </mxCell>
        <mxCell id="I3QkiguX6uBvckIXAO9h-5" value="" style="whiteSpace=wrap;html=1;aspect=fixed;" vertex="1" parent="1">
          <mxGeometry x="370.5" y="-831.5" width="65" height="65" as="geometry" />
        </mxCell>
        <mxCell id="I3QkiguX6uBvckIXAO9h-6" value="" style="whiteSpace=wrap;html=1;aspect=fixed;" vertex="1" parent="1">
          <mxGeometry x="370.5" y="-66.5" width="65" height="65" as="geometry" />
        </mxCell>
        <mxCell id="I3QkiguX6uBvckIXAO9h-7" value="" style="whiteSpace=wrap;html=1;aspect=fixed;" vertex="1" parent="1">
          <mxGeometry x="-396" y="-67" width="65" height="65" as="geometry" />
        </mxCell>
        <mxCell id="I3QkiguX6uBvckIXAO9h-8" value="" style="rounded=0;whiteSpace=wrap;html=1;" vertex="1" parent="1">
          <mxGeometry x="-395" y="-447" width="90" height="60" as="geometry" />
        </mxCell>
        <mxCell id="I3QkiguX6uBvckIXAO9h-9" value="" style="rounded=0;whiteSpace=wrap;html=1;rotation=-90;" vertex="1" parent="1">
          <mxGeometry x="-48.75" y="-685.25" width="137.5" height="25" as="geometry" />
        </mxCell>
        <mxCell id="I3QkiguX6uBvckIXAO9h-10" value="" style="rounded=0;whiteSpace=wrap;html=1;rotation=-90;" vertex="1" parent="1">
          <mxGeometry x="-48.75" y="-174" width="137.5" height="25" as="geometry" />
        </mxCell>
        <mxCell id="I3QkiguX6uBvckIXAO9h-11" value="" style="rounded=0;whiteSpace=wrap;html=1;" vertex="1" parent="1">
          <mxGeometry x="376" y="-753.25" width="59.5" height="134.5" as="geometry" />
        </mxCell>
        <mxCell id="I3QkiguX6uBvckIXAO9h-12" value="" style="rounded=0;whiteSpace=wrap;html=1;" vertex="1" parent="1">
          <mxGeometry x="376" y="-618.75" width="59.5" height="134.5" as="geometry" />
        </mxCell>
        <mxCell id="I3QkiguX6uBvckIXAO9h-13" value="" style="rounded=0;whiteSpace=wrap;html=1;" vertex="1" parent="1">
          <mxGeometry x="376" y="-484.25" width="59.5" height="134.5" as="geometry" />
        </mxCell>
        <mxCell id="I3QkiguX6uBvckIXAO9h-14" value="" style="rounded=0;whiteSpace=wrap;html=1;" vertex="1" parent="1">
          <mxGeometry x="376" y="-349.75" width="59.5" height="134.5" as="geometry" />
        </mxCell>
        <mxCell id="I3QkiguX6uBvckIXAO9h-15" value="" style="rounded=0;whiteSpace=wrap;html=1;" vertex="1" parent="1">
          <mxGeometry x="376" y="-215.25" width="59.5" height="134.5" as="geometry" />
        </mxCell>
        <mxCell id="I3QkiguX6uBvckIXAO9h-16" value="&lt;font style=&quot;font-size: 24px&quot;&gt;Basket Ball&lt;/font&gt;" style="text;html=1;resizable=0;autosize=1;align=center;verticalAlign=middle;points=[];fillColor=none;strokeColor=none;rounded=0;rotation=-90;" vertex="1" parent="1">
          <mxGeometry x="336" y="-292.5" width="140" height="20" as="geometry" />
        </mxCell>
        <mxCell id="I3QkiguX6uBvckIXAO9h-17" value="&lt;font style=&quot;font-size: 18px&quot;&gt;Outdoor Tennis&lt;/font&gt;" style="text;html=1;resizable=0;autosize=1;align=center;verticalAlign=middle;points=[];fillColor=none;strokeColor=none;rounded=0;rotation=-90;" vertex="1" parent="1">
          <mxGeometry x="335.75" y="-427" width="140" height="20" as="geometry" />
        </mxCell>
        <mxCell id="I3QkiguX6uBvckIXAO9h-18" value="&lt;font style=&quot;font-size: 18px&quot;&gt;Archery Range&lt;/font&gt;" style="text;html=1;resizable=0;autosize=1;align=center;verticalAlign=middle;points=[];fillColor=none;strokeColor=none;rounded=0;rotation=-90;" vertex="1" parent="1">
          <mxGeometry x="336" y="-696" width="140" height="20" as="geometry" />
        </mxCell>
        <mxCell id="I3QkiguX6uBvckIXAO9h-19" value="&lt;font style=&quot;font-size: 20px&quot;&gt;Kalari Range&lt;/font&gt;" style="text;html=1;resizable=0;autosize=1;align=center;verticalAlign=middle;points=[];fillColor=none;strokeColor=none;rounded=0;rotation=-90;" vertex="1" parent="1">
          <mxGeometry x="341" y="-158" width="130" height="20" as="geometry" />
        </mxCell>
        <mxCell id="I3QkiguX6uBvckIXAO9h-20" value="&lt;font style=&quot;font-size: 18px&quot;&gt;Shooting Range&lt;/font&gt;" style="text;html=1;resizable=0;autosize=1;align=center;verticalAlign=middle;points=[];fillColor=none;strokeColor=none;rounded=0;rotation=-90;" vertex="1" parent="1">
          <mxGeometry x="336" y="-562" width="140" height="20" as="geometry" />
        </mxCell>
        <mxCell id="I3QkiguX6uBvckIXAO9h-21" value="" style="rounded=0;whiteSpace=wrap;html=1;fontSize=20;" vertex="1" parent="1">
          <mxGeometry x="-80" y="-832" width="200" height="60" as="geometry" />
        </mxCell>
        <mxCell id="I3QkiguX6uBvckIXAO9h-22" value="" style="rounded=0;whiteSpace=wrap;html=1;fontSize=20;" vertex="1" parent="1">
          <mxGeometry x="240" y="-832" width="120" height="60" as="geometry" />
        </mxCell>
        <mxCell id="I3QkiguX6uBvckIXAO9h-23" value="" style="rounded=0;whiteSpace=wrap;html=1;fontSize=20;" vertex="1" parent="1">
          <mxGeometry x="120" y="-832" width="120" height="60" as="geometry" />
        </mxCell>
        <mxCell id="I3QkiguX6uBvckIXAO9h-24" value="" style="rounded=0;whiteSpace=wrap;html=1;fontSize=20;" vertex="1" parent="1">
          <mxGeometry x="-200" y="-832" width="120" height="60" as="geometry" />
        </mxCell>
        <mxCell id="I3QkiguX6uBvckIXAO9h-25" value="" style="rounded=0;whiteSpace=wrap;html=1;fontSize=20;" vertex="1" parent="1">
          <mxGeometry x="-320" y="-832" width="120" height="60" as="geometry" />
        </mxCell>
        <mxCell id="I3QkiguX6uBvckIXAO9h-26" value="" style="rounded=0;whiteSpace=wrap;html=1;fontSize=20;rotation=-90;" vertex="1" parent="1">
          <mxGeometry x="-465.5" y="-576.5" width="200" height="60" as="geometry" />
        </mxCell>
        <mxCell id="I3QkiguX6uBvckIXAO9h-27" value="" style="rounded=0;whiteSpace=wrap;html=1;fontSize=20;" vertex="1" parent="1">
          <mxGeometry x="-80" y="-61.5" width="200" height="60" as="geometry" />
        </mxCell>
        <mxCell id="I3QkiguX6uBvckIXAO9h-28" value="" style="rounded=0;whiteSpace=wrap;html=1;fontSize=20;" vertex="1" parent="1">
          <mxGeometry x="240" y="-61.5" width="120" height="60" as="geometry" />
        </mxCell>
        <mxCell id="I3QkiguX6uBvckIXAO9h-29" value="" style="rounded=0;whiteSpace=wrap;html=1;fontSize=20;" vertex="1" parent="1">
          <mxGeometry x="120" y="-61.5" width="120" height="60" as="geometry" />
        </mxCell>
        <mxCell id="I3QkiguX6uBvckIXAO9h-30" value="" style="rounded=0;whiteSpace=wrap;html=1;fontSize=20;" vertex="1" parent="1">
          <mxGeometry x="-200" y="-61.5" width="120" height="60" as="geometry" />
        </mxCell>
        <mxCell id="I3QkiguX6uBvckIXAO9h-31" value="" style="rounded=0;whiteSpace=wrap;html=1;fontSize=20;" vertex="1" parent="1">
          <mxGeometry x="-320" y="-61.5" width="120" height="60" as="geometry" />
        </mxCell>
        <mxCell id="I3QkiguX6uBvckIXAO9h-32" value="" style="rounded=0;whiteSpace=wrap;html=1;fontSize=20;rotation=-90;" vertex="1" parent="1">
          <mxGeometry x="-425.5" y="-169" width="120" height="60" as="geometry" />
        </mxCell>
        <mxCell id="I3QkiguX6uBvckIXAO9h-33" value="" style="rounded=0;whiteSpace=wrap;html=1;fontSize=20;rotation=-90;" vertex="1" parent="1">
          <mxGeometry x="-426" y="-289.5" width="120" height="60" as="geometry" />
        </mxCell>
        <mxCell id="I3QkiguX6uBvckIXAO9h-34" value="" style="rounded=0;whiteSpace=wrap;html=1;fontSize=20;rotation=-90;" vertex="1" parent="1">
          <mxGeometry x="-398.37" y="-383.12" width="65.75" height="60" as="geometry" />
        </mxCell>
        <mxCell id="I3QkiguX6uBvckIXAO9h-35" value="" style="rounded=0;whiteSpace=wrap;html=1;fontSize=20;rotation=-90;" vertex="1" parent="1">
          <mxGeometry x="-412" y="-736" width="94" height="60" as="geometry" />
        </mxCell>
        <mxCell id="I3QkiguX6uBvckIXAO9h-36" value="&lt;font style=&quot;font-size: 18px&quot;&gt;Extra Parking&lt;/font&gt;" style="text;html=1;resizable=0;autosize=1;align=center;verticalAlign=middle;points=[];fillColor=none;strokeColor=none;rounded=0;rotation=-90;" vertex="1" parent="1">
          <mxGeometry x="-426.5" y="-555.5" width="120" height="20" as="geometry" />
        </mxCell>
        <mxCell id="I3QkiguX6uBvckIXAO9h-37" value="&lt;span style=&quot;font-size: 18px&quot;&gt;Security&lt;/span&gt;" style="text;html=1;resizable=0;autosize=1;align=center;verticalAlign=middle;points=[];fillColor=none;strokeColor=none;rounded=0;rotation=-45;" vertex="1" parent="1">
          <mxGeometry x="-406.5" y="-363.12" width="80" height="20" as="geometry" />
        </mxCell>
        <mxCell id="I3QkiguX6uBvckIXAO9h-38" value="&lt;font style=&quot;font-size: 12px&quot;&gt;Generator/Bio-Gas&lt;/font&gt;" style="text;html=1;resizable=0;autosize=1;align=center;verticalAlign=middle;points=[];fillColor=none;strokeColor=none;rounded=0;rotation=-60;" vertex="1" parent="1">
          <mxGeometry x="-425.5" y="-715" width="120" height="20" as="geometry" />
        </mxCell>
        <mxCell id="I3QkiguX6uBvckIXAO9h-39" value="&lt;font style=&quot;font-size: 18px&quot;&gt;Kitchen&lt;/font&gt;" style="text;html=1;resizable=0;autosize=1;align=center;verticalAlign=middle;points=[];fillColor=none;strokeColor=none;rounded=0;rotation=-60;" vertex="1" parent="1">
          <mxGeometry x="-405" y="-809" width="80" height="20" as="geometry" />
        </mxCell>
        <mxCell id="I3QkiguX6uBvckIXAO9h-40" value="&lt;font style=&quot;font-size: 18px&quot;&gt;Entrance &amp;gt;&lt;/font&gt;" style="text;html=1;resizable=0;autosize=1;align=center;verticalAlign=middle;points=[];fillColor=none;strokeColor=none;rounded=0;rotation=0;" vertex="1" parent="1">
          <mxGeometry x="-400" y="-427" width="100" height="20" as="geometry" />
        </mxCell>
        <mxCell id="I3QkiguX6uBvckIXAO9h-41" value="&lt;font style=&quot;font-size: 18px&quot;&gt;Parking&lt;/font&gt;" style="text;html=1;resizable=0;autosize=1;align=center;verticalAlign=middle;points=[];fillColor=none;strokeColor=none;rounded=0;rotation=0;" vertex="1" parent="1">
          <mxGeometry x="-180" y="-812" width="80" height="20" as="geometry" />
        </mxCell>
        <mxCell id="I3QkiguX6uBvckIXAO9h-42" value="&lt;font style=&quot;font-size: 18px&quot;&gt;Parking&lt;/font&gt;" style="text;html=1;resizable=0;autosize=1;align=center;verticalAlign=middle;points=[];fillColor=none;strokeColor=none;rounded=0;rotation=0;" vertex="1" parent="1">
          <mxGeometry x="140" y="-809" width="80" height="20" as="geometry" />
        </mxCell>
        <mxCell id="I3QkiguX6uBvckIXAO9h-43" value="&lt;font style=&quot;font-size: 18px&quot;&gt;Parking&lt;/font&gt;" style="text;html=1;resizable=0;autosize=1;align=center;verticalAlign=middle;points=[];fillColor=none;strokeColor=none;rounded=0;rotation=0;" vertex="1" parent="1">
          <mxGeometry x="-180" y="-41.5" width="80" height="20" as="geometry" />
        </mxCell>
        <mxCell id="I3QkiguX6uBvckIXAO9h-44" value="" style="ellipse;whiteSpace=wrap;html=1;aspect=fixed;" vertex="1" parent="1">
          <mxGeometry x="-192.75" y="-629.75" width="425.5" height="425.5" as="geometry" />
        </mxCell>
        <mxCell id="I3QkiguX6uBvckIXAO9h-45" value="&lt;font style=&quot;font-size: 18px&quot;&gt;Parking&lt;/font&gt;" style="text;html=1;resizable=0;autosize=1;align=center;verticalAlign=middle;points=[];fillColor=none;strokeColor=none;rounded=0;rotation=0;" vertex="1" parent="1">
          <mxGeometry x="140" y="-41.5" width="80" height="20" as="geometry" />
        </mxCell>
        <mxCell id="I3QkiguX6uBvckIXAO9h-46" value="" style="ellipse;whiteSpace=wrap;html=1;aspect=fixed;" vertex="1" parent="1">
          <mxGeometry x="-167.5" y="-604.5" width="375" height="375" as="geometry" />
        </mxCell>
        <mxCell id="I3QkiguX6uBvckIXAO9h-47" value="" style="endArrow=none;dashed=1;html=1;dashPattern=1 3;strokeWidth=2;rounded=0;entryX=0.5;entryY=0;entryDx=0;entryDy=0;exitX=0.5;exitY=1;exitDx=0;exitDy=0;startArrow=none;" edge="1" parent="1" source="I3QkiguX6uBvckIXAO9h-52">
          <mxGeometry width="50" height="50" relative="1" as="geometry">
            <mxPoint x="19.5" y="-229.5" as="sourcePoint" />
            <mxPoint x="19.5" y="-604.5" as="targetPoint" />
          </mxGeometry>
        </mxCell>
        <mxCell id="I3QkiguX6uBvckIXAO9h-48" value="" style="endArrow=none;dashed=1;html=1;rounded=0;fontSize=18;entryX=0;entryY=0.5;entryDx=0;entryDy=0;" edge="1" parent="1" target="I3QkiguX6uBvckIXAO9h-44">
          <mxGeometry width="50" height="50" relative="1" as="geometry">
            <mxPoint x="-306" y="-417" as="sourcePoint" />
            <mxPoint x="-256" y="-467" as="targetPoint" />
          </mxGeometry>
        </mxCell>
        <mxCell id="I3QkiguX6uBvckIXAO9h-49" value="" style="endArrow=none;dashed=1;html=1;rounded=0;fontSize=18;entryX=0;entryY=0.5;entryDx=0;entryDy=0;" edge="1" parent="1">
          <mxGeometry width="50" height="50" relative="1" as="geometry">
            <mxPoint x="232.75" y="-418" as="sourcePoint" />
            <mxPoint x="345.9999999999982" y="-418" as="targetPoint" />
          </mxGeometry>
        </mxCell>
        <mxCell id="I3QkiguX6uBvckIXAO9h-50" value="" style="endArrow=none;dashed=1;html=1;dashPattern=1 3;strokeWidth=2;rounded=0;entryX=0.5;entryY=0;entryDx=0;entryDy=0;exitX=0.5;exitY=1;exitDx=0;exitDy=0;" edge="1" parent="1" target="I3QkiguX6uBvckIXAO9h-52">
          <mxGeometry width="50" height="50" relative="1" as="geometry">
            <mxPoint x="19.5" y="-229.5" as="sourcePoint" />
            <mxPoint x="19.5" y="-604.5" as="targetPoint" />
          </mxGeometry>
        </mxCell>
        <mxCell id="I3QkiguX6uBvckIXAO9h-51" value="" style="endArrow=none;dashed=1;html=1;dashPattern=1 3;strokeWidth=2;rounded=0;entryX=1;entryY=0.5;entryDx=0;entryDy=0;exitX=0;exitY=0.5;exitDx=0;exitDy=0;startArrow=none;" edge="1" parent="1" source="I3QkiguX6uBvckIXAO9h-72">
          <mxGeometry width="50" height="50" relative="1" as="geometry">
            <mxPoint x="-167.50000000000136" y="-417.5" as="sourcePoint" />
            <mxPoint x="207.50000000000182" y="-417.5" as="targetPoint" />
          </mxGeometry>
        </mxCell>
        <mxCell id="I3QkiguX6uBvckIXAO9h-52" value="" style="ellipse;whiteSpace=wrap;html=1;aspect=fixed;fontSize=18;" vertex="1" parent="1">
          <mxGeometry x="-10" y="-447" width="60" height="60" as="geometry" />
        </mxCell>
        <mxCell id="I3QkiguX6uBvckIXAO9h-53" value="&lt;font style=&quot;font-size: 14px&quot;&gt;Occasional Celebration Area&lt;/font&gt;" style="text;html=1;resizable=0;autosize=1;align=center;verticalAlign=middle;points=[];fillColor=none;strokeColor=none;rounded=0;rotation=0;" vertex="1" parent="1">
          <mxGeometry x="-75" y="-812" width="190" height="20" as="geometry" />
        </mxCell>
        <mxCell id="I3QkiguX6uBvckIXAO9h-54" value="&lt;font style=&quot;font-size: 14px&quot;&gt;Monthly Celebration Area&lt;/font&gt;" style="text;html=1;resizable=0;autosize=1;align=center;verticalAlign=middle;points=[];fillColor=none;strokeColor=none;rounded=0;rotation=0;" vertex="1" parent="1">
          <mxGeometry x="-60" y="-41.5" width="170" height="20" as="geometry" />
        </mxCell>
        <mxCell id="I3QkiguX6uBvckIXAO9h-55" value="&lt;font style=&quot;font-size: 18px&quot;&gt;Male Gym&lt;/font&gt;" style="text;html=1;resizable=0;autosize=1;align=center;verticalAlign=middle;points=[];fillColor=none;strokeColor=none;rounded=0;rotation=0;" vertex="1" parent="1">
          <mxGeometry x="251" y="-809" width="100" height="20" as="geometry" />
        </mxCell>
        <mxCell id="I3QkiguX6uBvckIXAO9h-56" value="&lt;font style=&quot;font-size: 18px&quot;&gt;Female Gym&lt;/font&gt;" style="text;html=1;resizable=0;autosize=1;align=center;verticalAlign=middle;points=[];fillColor=none;strokeColor=none;rounded=0;rotation=0;" vertex="1" parent="1">
          <mxGeometry x="240" y="-41.5" width="120" height="20" as="geometry" />
        </mxCell>
        <mxCell id="I3QkiguX6uBvckIXAO9h-57" value="&lt;font style=&quot;font-size: 18px&quot;&gt;Meeting Room&lt;/font&gt;" style="text;html=1;resizable=0;autosize=1;align=center;verticalAlign=middle;points=[];fillColor=none;strokeColor=none;rounded=0;rotation=0;" vertex="1" parent="1">
          <mxGeometry x="-325" y="-41.5" width="130" height="20" as="geometry" />
        </mxCell>
        <mxCell id="I3QkiguX6uBvckIXAO9h-58" value="&lt;font style=&quot;font-size: 12px&quot;&gt;Food/Retail Storage&lt;/font&gt;" style="text;html=1;resizable=0;autosize=1;align=center;verticalAlign=middle;points=[];fillColor=none;strokeColor=none;rounded=0;rotation=0;" vertex="1" parent="1">
          <mxGeometry x="-320" y="-809.5" width="120" height="20" as="geometry" />
        </mxCell>
        <mxCell id="I3QkiguX6uBvckIXAO9h-59" value="&lt;font style=&quot;font-size: 14px&quot;&gt;Puja Area&lt;/font&gt;" style="text;html=1;resizable=0;autosize=1;align=center;verticalAlign=middle;points=[];fillColor=none;strokeColor=none;rounded=0;rotation=-45;" vertex="1" parent="1">
          <mxGeometry x="363" y="-44.5" width="80" height="20" as="geometry" />
        </mxCell>
        <mxCell id="I3QkiguX6uBvckIXAO9h-60" value="&lt;font style=&quot;font-size: 12px&quot;&gt;Planning Area&lt;/font&gt;" style="text;html=1;resizable=0;autosize=1;align=center;verticalAlign=middle;points=[];fillColor=none;strokeColor=none;rounded=0;rotation=-45;" vertex="1" parent="1">
          <mxGeometry x="357" y="-809" width="90" height="20" as="geometry" />
        </mxCell>
        <mxCell id="I3QkiguX6uBvckIXAO9h-61" value="&lt;font style=&quot;font-size: 14px&quot;&gt;Women Beauty&lt;/font&gt;" style="text;html=1;resizable=0;autosize=1;align=center;verticalAlign=middle;points=[];fillColor=none;strokeColor=none;rounded=0;rotation=-90;" vertex="1" parent="1">
          <mxGeometry x="-421.5" y="-149" width="110" height="20" as="geometry" />
        </mxCell>
        <mxCell id="I3QkiguX6uBvckIXAO9h-62" value="&lt;font style=&quot;font-size: 12px&quot;&gt;Eye/Dental&lt;br&gt;Maintenance&lt;br&gt;&lt;/font&gt;" style="text;html=1;resizable=0;autosize=1;align=center;verticalAlign=middle;points=[];fillColor=none;strokeColor=none;rounded=0;rotation=-45;" vertex="1" parent="1">
          <mxGeometry x="-406" y="-50.5" width="80" height="30" as="geometry" />
        </mxCell>
        <mxCell id="I3QkiguX6uBvckIXAO9h-63" value="&lt;font style=&quot;font-size: 14px&quot;&gt;Men Appearance&lt;/font&gt;" style="text;html=1;resizable=0;autosize=1;align=center;verticalAlign=middle;points=[];fillColor=none;strokeColor=none;rounded=0;rotation=-90;" vertex="1" parent="1">
          <mxGeometry x="-425" y="-269.5" width="120" height="20" as="geometry" />
        </mxCell>
        <mxCell id="I3QkiguX6uBvckIXAO9h-64" value="&lt;font style=&quot;font-size: 18px&quot;&gt;Education&lt;/font&gt;" style="text;html=1;resizable=0;autosize=1;align=center;verticalAlign=middle;points=[];fillColor=none;strokeColor=none;rounded=0;rotation=0;" vertex="1" parent="1">
          <mxGeometry x="-110" y="-504.25" width="100" height="20" as="geometry" />
        </mxCell>
        <mxCell id="I3QkiguX6uBvckIXAO9h-65" value="&lt;font style=&quot;font-size: 18px&quot;&gt;Tradition&lt;/font&gt;" style="text;html=1;resizable=0;autosize=1;align=center;verticalAlign=middle;points=[];fillColor=none;strokeColor=none;rounded=0;rotation=0;" vertex="1" parent="1">
          <mxGeometry x="-100" y="-343.12" width="80" height="20" as="geometry" />
        </mxCell>
        <mxCell id="I3QkiguX6uBvckIXAO9h-66" value="&lt;font style=&quot;font-size: 18px&quot;&gt;Food&lt;/font&gt;" style="text;html=1;resizable=0;autosize=1;align=center;verticalAlign=middle;points=[];fillColor=none;strokeColor=none;rounded=0;rotation=0;" vertex="1" parent="1">
          <mxGeometry x="80" y="-504.25" width="60" height="20" as="geometry" />
        </mxCell>
        <mxCell id="I3QkiguX6uBvckIXAO9h-67" value="&lt;font style=&quot;font-size: 18px&quot;&gt;Recreation&lt;/font&gt;" style="text;html=1;resizable=0;autosize=1;align=center;verticalAlign=middle;points=[];fillColor=none;strokeColor=none;rounded=0;rotation=0;" vertex="1" parent="1">
          <mxGeometry x="50" y="-343.12" width="100" height="20" as="geometry" />
        </mxCell>
        <mxCell id="I3QkiguX6uBvckIXAO9h-68" value="&lt;font style=&quot;font-size: 36px&quot;&gt;Housing Area&lt;/font&gt;" style="text;html=1;resizable=0;autosize=1;align=center;verticalAlign=middle;points=[];fillColor=none;strokeColor=none;rounded=0;rotation=-45;" vertex="1" parent="1">
          <mxGeometry x="-305" y="-634.5" width="230" height="30" as="geometry" />
        </mxCell>
        <mxCell id="I3QkiguX6uBvckIXAO9h-69" value="&lt;font style=&quot;font-size: 36px&quot;&gt;Housing Area&lt;/font&gt;" style="text;html=1;resizable=0;autosize=1;align=center;verticalAlign=middle;points=[];fillColor=none;strokeColor=none;rounded=0;rotation=-45;" vertex="1" parent="1">
          <mxGeometry x="106" y="-245.25" width="230" height="30" as="geometry" />
        </mxCell>
        <mxCell id="I3QkiguX6uBvckIXAO9h-70" value="&lt;font style=&quot;font-size: 36px&quot;&gt;Housing Area&lt;/font&gt;" style="text;html=1;resizable=0;autosize=1;align=center;verticalAlign=middle;points=[];fillColor=none;strokeColor=none;rounded=0;rotation=45;" vertex="1" parent="1">
          <mxGeometry x="105.75" y="-618.75" width="230" height="30" as="geometry" />
        </mxCell>
        <mxCell id="I3QkiguX6uBvckIXAO9h-71" value="&lt;font style=&quot;font-size: 36px&quot;&gt;Housing Area&lt;/font&gt;" style="text;html=1;resizable=0;autosize=1;align=center;verticalAlign=middle;points=[];fillColor=none;strokeColor=none;rounded=0;rotation=45;" vertex="1" parent="1">
          <mxGeometry x="-300" y="-234.25" width="230" height="30" as="geometry" />
        </mxCell>
        <mxCell id="I3QkiguX6uBvckIXAO9h-72" value="" style="shape=image;html=1;verticalAlign=top;verticalLabelPosition=bottom;labelBackgroundColor=#ffffff;imageAspect=0;aspect=fixed;image=https://cdn4.iconfinder.com/data/icons/free-color-christmas-icons/24/Christmas_Tree-128.png;fontSize=36;" vertex="1" parent="1">
          <mxGeometry x="-4" y="-441" width="48" height="48" as="geometry" />
        </mxCell>
        <mxCell id="I3QkiguX6uBvckIXAO9h-73" value="" style="endArrow=none;dashed=1;html=1;dashPattern=1 3;strokeWidth=2;rounded=0;entryX=1;entryY=0.5;entryDx=0;entryDy=0;exitX=0;exitY=0.5;exitDx=0;exitDy=0;" edge="1" parent="1" target="I3QkiguX6uBvckIXAO9h-72">
          <mxGeometry width="50" height="50" relative="1" as="geometry">
            <mxPoint x="-167.50000000000136" y="-417.5" as="sourcePoint" />
            <mxPoint x="207.50000000000182" y="-417.5" as="targetPoint" />
          </mxGeometry>
        </mxCell>
        <mxCell id="I3QkiguX6uBvckIXAO9h-74" value="&lt;font style=&quot;font-size: 24px&quot; color=&quot;#0000cc&quot;&gt;&lt;b&gt;Tree&lt;/b&gt;&lt;/font&gt;" style="text;html=1;resizable=0;autosize=1;align=center;verticalAlign=middle;points=[];fillColor=none;strokeColor=none;rounded=0;rotation=0;" vertex="1" parent="1">
          <mxGeometry x="-10" y="-427" width="60" height="20" as="geometry" />
        </mxCell>
      </root>
    </mxGraphModel>
  </diagram>
</mxfile>
